<mxfile host="app.diagrams.net" modified="2022-01-10T14:33:12.689Z" agent="5.0 (Windows NT 10.0; Win64; x64) AppleWebKit/537.36 (KHTML, like Gecko) Chrome/96.0.4664.110 Safari/537.36" etag="ppkSIEquzl05mDQ-s7M-" version="16.2.2" type="github">
  <diagram name="Page-1" id="5f0bae14-7c28-e335-631c-24af17079c00">
    <mxGraphModel dx="1384" dy="719" grid="1" gridSize="10" guides="1" tooltips="1" connect="1" arrows="1" fold="1" page="1" pageScale="1" pageWidth="1100" pageHeight="850" background="none" math="0" shadow="0">
      <root>
        <mxCell id="0" />
        <mxCell id="1" parent="0" />
        <mxCell id="-zqVf1Ai86fP41GlEzWL-71" value="mongo-db" style="verticalAlign=top;align=left;spacingTop=8;spacingLeft=2;spacingRight=12;shape=cube;size=10;direction=south;fontStyle=4;html=1;rounded=0;shadow=0;comic=0;labelBackgroundColor=none;strokeWidth=1;fontFamily=Verdana;fontSize=12;fillColor=#d5e8d4;strokeColor=#82b366;" vertex="1" parent="1">
          <mxGeometry x="100" y="1030" width="920" height="1040" as="geometry" />
        </mxCell>
        <mxCell id="-zqVf1Ai86fP41GlEzWL-68" style="edgeStyle=orthogonalEdgeStyle;rounded=0;orthogonalLoop=1;jettySize=auto;html=1;entryX=0;entryY=0;entryDx=175;entryDy=330;entryPerimeter=0;endArrow=open;endFill=0;" edge="1" parent="1" source="39150e848f15840c-1" target="-zqVf1Ai86fP41GlEzWL-51">
          <mxGeometry relative="1" as="geometry" />
        </mxCell>
        <mxCell id="39150e848f15840c-1" value="passive-operations-service" style="verticalAlign=top;align=left;spacingTop=8;spacingLeft=2;spacingRight=12;shape=cube;size=10;direction=south;fontStyle=4;html=1;rounded=0;shadow=0;comic=0;labelBackgroundColor=none;strokeWidth=1;fontFamily=Verdana;fontSize=12;fillColor=#dae8fc;strokeColor=#6c8ebf;" parent="1" vertex="1">
          <mxGeometry x="170" y="240" width="330" height="340" as="geometry" />
        </mxCell>
        <mxCell id="-zqVf1Ai86fP41GlEzWL-8" value="Customers" style="swimlane;childLayout=stackLayout;horizontal=1;startSize=30;horizontalStack=0;rounded=1;fontSize=14;fontStyle=0;strokeWidth=2;resizeParent=0;resizeLast=1;shadow=0;dashed=0;align=center;fillColor=#E6E6E6;swimlaneLine=1;glass=0;sketch=0;fillStyle=auto;swimlaneFillColor=default;" vertex="1" parent="1">
          <mxGeometry x="450" y="1100" width="230" height="715" as="geometry" />
        </mxCell>
        <mxCell id="-zqVf1Ai86fP41GlEzWL-9" value="{&#xa;    &quot;id&quot;: &quot;String&quot;,&#xa;    &quot;type&quot;: &quot;String&quot;,&#xa;    &quot;status&quot;: &quot;String&quot;,&#xa;    &quot;personDetails&quot;: {&#xa;        &quot;name&quot;: &quot;String&quot;,&#xa;        &quot;lastname&quot;: &quot;String&quot;,&#xa;        &quot;identityNumber&quot;: &quot;String&quot;,&#xa;        &quot;address&quot;: {&#xa;            &quot;number&quot;: Integer,&#xa;            &quot;street&quot;: &quot;String&quot;,&#xa;            &quot;city&quot;: &quot;String&quot;,&#xa;            &quot;country&quot;: &quot;String&quot;&#xa;        },&#xa;        &quot;email&quot;: &quot;String&quot;,&#xa;        &quot;phoneNumber&quot;: &quot;String&quot;,&#xa;        &quot;mobileNumber&quot;: &quot;String&quot;,&#xa;        &quot;birthdate&quot;: &quot;Date&quot;&#xa;    },&#xa;    &quot;businessDetails&quot;: {&#xa;        &quot;name&quot;: &quot;String&quot;,&#xa;        &quot;ruc&quot;: &quot;String&quot;,&#xa;        &quot;address&quot;: {&#xa;            &quot;number&quot;: Integer,&#xa;            &quot;street&quot;: &quot;String&quot;,&#xa;            &quot;city&quot;: &quot;String&quot;,&#xa;            &quot;country&quot;: &quot;String&quot;,&#xa;        },&#xa;        &quot;representatives&quot;: [&#xa;            {&#xa;                &quot;name&quot;: &quot;String&quot;,&#xa;                &quot;lastname&quot;: &quot;String&quot;,&#xa;                &quot;identityNumber&quot;: &quot;String&quot;,&#xa;                &quot;address&quot;: {&#xa;                    &quot;number&quot;: Integer,&#xa;                    &quot;street&quot;: &quot;String&quot;,&#xa;                    &quot;city&quot;: &quot;String&quot;,&#xa;                    &quot;country&quot;: &quot;String&quot;,&#xa;                },&#xa;                &quot;email&quot;: &quot;String&quot;,&#xa;                &quot;phoneNumber&quot;: &quot;String&quot;,&#xa;                &quot;mobileNumber&quot;: &quot;String&quot;,&#xa;                &quot;birthdate&quot;: &quot;Date&quot;&#xa;            }&#xa;        ]&#xa;    }&#xa;}" style="align=left;strokeColor=none;fillColor=none;spacingLeft=4;fontSize=12;verticalAlign=top;resizable=0;rotatable=0;part=1;" vertex="1" parent="-zqVf1Ai86fP41GlEzWL-8">
          <mxGeometry y="30" width="230" height="685" as="geometry" />
        </mxCell>
        <mxCell id="-zqVf1Ai86fP41GlEzWL-25" style="edgeStyle=orthogonalEdgeStyle;rounded=0;orthogonalLoop=1;jettySize=auto;html=1;dashed=1;dashPattern=1 4;endArrow=open;endFill=0;" edge="1" parent="1" source="-zqVf1Ai86fP41GlEzWL-17" target="-zqVf1Ai86fP41GlEzWL-18">
          <mxGeometry relative="1" as="geometry" />
        </mxCell>
        <mxCell id="-zqVf1Ai86fP41GlEzWL-29" style="edgeStyle=orthogonalEdgeStyle;rounded=0;orthogonalLoop=1;jettySize=auto;html=1;entryX=0;entryY=0;entryDx=0;entryDy=53;entryPerimeter=0;dashed=1;dashPattern=1 4;endArrow=open;endFill=0;" edge="1" parent="1" source="-zqVf1Ai86fP41GlEzWL-17" target="-zqVf1Ai86fP41GlEzWL-21">
          <mxGeometry relative="1" as="geometry" />
        </mxCell>
        <mxCell id="-zqVf1Ai86fP41GlEzWL-17" value="expose" style="shape=folder;fontStyle=1;spacingTop=10;tabWidth=40;tabHeight=14;tabPosition=left;html=1;fillColor=#fff2cc;strokeColor=#d6b656;" vertex="1" parent="1">
          <mxGeometry x="190" y="290" width="90" height="50" as="geometry" />
        </mxCell>
        <mxCell id="-zqVf1Ai86fP41GlEzWL-26" style="edgeStyle=orthogonalEdgeStyle;rounded=0;orthogonalLoop=1;jettySize=auto;html=1;dashed=1;dashPattern=1 4;endArrow=open;endFill=0;" edge="1" parent="1" source="-zqVf1Ai86fP41GlEzWL-18" target="-zqVf1Ai86fP41GlEzWL-19">
          <mxGeometry relative="1" as="geometry" />
        </mxCell>
        <mxCell id="-zqVf1Ai86fP41GlEzWL-32" style="edgeStyle=orthogonalEdgeStyle;rounded=0;orthogonalLoop=1;jettySize=auto;html=1;entryX=0;entryY=0;entryDx=0;entryDy=32;entryPerimeter=0;endArrow=open;endFill=0;dashed=1;dashPattern=1 4;" edge="1" parent="1" source="-zqVf1Ai86fP41GlEzWL-18" target="-zqVf1Ai86fP41GlEzWL-22">
          <mxGeometry relative="1" as="geometry" />
        </mxCell>
        <mxCell id="-zqVf1Ai86fP41GlEzWL-34" style="edgeStyle=orthogonalEdgeStyle;rounded=0;orthogonalLoop=1;jettySize=auto;html=1;endArrow=open;endFill=0;dashed=1;dashPattern=1 4;" edge="1" parent="1" source="-zqVf1Ai86fP41GlEzWL-18" target="-zqVf1Ai86fP41GlEzWL-21">
          <mxGeometry relative="1" as="geometry">
            <Array as="points">
              <mxPoint x="305" y="385" />
              <mxPoint x="305" y="390" />
            </Array>
          </mxGeometry>
        </mxCell>
        <mxCell id="-zqVf1Ai86fP41GlEzWL-18" value="business" style="shape=folder;fontStyle=1;spacingTop=10;tabWidth=40;tabHeight=14;tabPosition=left;html=1;fillColor=#fff2cc;strokeColor=#d6b656;" vertex="1" parent="1">
          <mxGeometry x="190" y="360" width="90" height="50" as="geometry" />
        </mxCell>
        <mxCell id="-zqVf1Ai86fP41GlEzWL-27" style="edgeStyle=orthogonalEdgeStyle;rounded=0;orthogonalLoop=1;jettySize=auto;html=1;dashed=1;dashPattern=1 4;endArrow=open;endFill=0;" edge="1" parent="1" source="-zqVf1Ai86fP41GlEzWL-19" target="-zqVf1Ai86fP41GlEzWL-20">
          <mxGeometry relative="1" as="geometry" />
        </mxCell>
        <mxCell id="-zqVf1Ai86fP41GlEzWL-19" value="repository" style="shape=folder;fontStyle=1;spacingTop=10;tabWidth=40;tabHeight=14;tabPosition=left;html=1;fillColor=#fff2cc;strokeColor=#d6b656;" vertex="1" parent="1">
          <mxGeometry x="190" y="440" width="90" height="50" as="geometry" />
        </mxCell>
        <mxCell id="-zqVf1Ai86fP41GlEzWL-76" style="edgeStyle=orthogonalEdgeStyle;rounded=0;orthogonalLoop=1;jettySize=auto;html=1;entryX=0.5;entryY=0;entryDx=0;entryDy=0;dashed=1;endArrow=open;endFill=0;" edge="1" parent="1" source="-zqVf1Ai86fP41GlEzWL-20" target="-zqVf1Ai86fP41GlEzWL-72">
          <mxGeometry relative="1" as="geometry" />
        </mxCell>
        <mxCell id="-zqVf1Ai86fP41GlEzWL-20" value="models" style="shape=folder;fontStyle=1;spacingTop=10;tabWidth=40;tabHeight=14;tabPosition=left;html=1;fillColor=#fff2cc;strokeColor=#d6b656;" vertex="1" parent="1">
          <mxGeometry x="190" y="510" width="90" height="50" as="geometry" />
        </mxCell>
        <mxCell id="-zqVf1Ai86fP41GlEzWL-22" value="config" style="shape=folder;fontStyle=1;spacingTop=10;tabWidth=40;tabHeight=14;tabPosition=left;html=1;fillColor=#fff2cc;strokeColor=#d6b656;" vertex="1" parent="1">
          <mxGeometry x="330" y="510" width="140" height="50" as="geometry" />
        </mxCell>
        <mxCell id="-zqVf1Ai86fP41GlEzWL-69" style="edgeStyle=orthogonalEdgeStyle;rounded=0;orthogonalLoop=1;jettySize=auto;html=1;entryX=0;entryY=0;entryDx=165;entryDy=0;entryPerimeter=0;endArrow=open;endFill=0;" edge="1" parent="1" source="-zqVf1Ai86fP41GlEzWL-36" target="-zqVf1Ai86fP41GlEzWL-51">
          <mxGeometry relative="1" as="geometry" />
        </mxCell>
        <mxCell id="-zqVf1Ai86fP41GlEzWL-36" value="active-operations-service" style="verticalAlign=top;align=left;spacingTop=8;spacingLeft=2;spacingRight=12;shape=cube;size=10;direction=south;fontStyle=4;html=1;rounded=0;shadow=0;comic=0;labelBackgroundColor=none;strokeWidth=1;fontFamily=Verdana;fontSize=12;fillColor=#f5f5f5;strokeColor=#666666;fontColor=#333333;" vertex="1" parent="1">
          <mxGeometry x="620" y="240" width="330" height="340" as="geometry" />
        </mxCell>
        <mxCell id="-zqVf1Ai86fP41GlEzWL-37" style="edgeStyle=orthogonalEdgeStyle;rounded=0;orthogonalLoop=1;jettySize=auto;html=1;dashed=1;dashPattern=1 4;endArrow=open;endFill=0;" edge="1" parent="1" source="-zqVf1Ai86fP41GlEzWL-39" target="-zqVf1Ai86fP41GlEzWL-43">
          <mxGeometry relative="1" as="geometry" />
        </mxCell>
        <mxCell id="-zqVf1Ai86fP41GlEzWL-38" style="edgeStyle=orthogonalEdgeStyle;rounded=0;orthogonalLoop=1;jettySize=auto;html=1;entryX=0;entryY=0;entryDx=140;entryDy=60.5;entryPerimeter=0;dashed=1;dashPattern=1 4;endArrow=open;endFill=0;" edge="1" parent="1" source="-zqVf1Ai86fP41GlEzWL-39" target="-zqVf1Ai86fP41GlEzWL-47">
          <mxGeometry relative="1" as="geometry" />
        </mxCell>
        <mxCell id="-zqVf1Ai86fP41GlEzWL-39" value="expose" style="shape=folder;fontStyle=1;spacingTop=10;tabWidth=40;tabHeight=14;tabPosition=left;html=1;fillColor=#fff2cc;strokeColor=#d6b656;" vertex="1" parent="1">
          <mxGeometry x="830" y="290" width="90" height="50" as="geometry" />
        </mxCell>
        <mxCell id="-zqVf1Ai86fP41GlEzWL-40" style="edgeStyle=orthogonalEdgeStyle;rounded=0;orthogonalLoop=1;jettySize=auto;html=1;dashed=1;dashPattern=1 4;endArrow=open;endFill=0;" edge="1" parent="1" source="-zqVf1Ai86fP41GlEzWL-43" target="-zqVf1Ai86fP41GlEzWL-45">
          <mxGeometry relative="1" as="geometry" />
        </mxCell>
        <mxCell id="-zqVf1Ai86fP41GlEzWL-82" style="edgeStyle=orthogonalEdgeStyle;rounded=0;orthogonalLoop=1;jettySize=auto;html=1;entryX=0;entryY=0;entryDx=140;entryDy=32;entryPerimeter=0;endArrow=open;endFill=0;dashed=1;dashPattern=1 4;" edge="1" parent="1" source="-zqVf1Ai86fP41GlEzWL-43" target="-zqVf1Ai86fP41GlEzWL-48">
          <mxGeometry relative="1" as="geometry" />
        </mxCell>
        <mxCell id="-zqVf1Ai86fP41GlEzWL-83" style="edgeStyle=orthogonalEdgeStyle;rounded=0;orthogonalLoop=1;jettySize=auto;html=1;entryX=1.011;entryY=0.471;entryDx=0;entryDy=0;entryPerimeter=0;dashed=1;dashPattern=1 4;endArrow=open;endFill=0;" edge="1" parent="1" source="-zqVf1Ai86fP41GlEzWL-43" target="-zqVf1Ai86fP41GlEzWL-47">
          <mxGeometry relative="1" as="geometry" />
        </mxCell>
        <mxCell id="-zqVf1Ai86fP41GlEzWL-43" value="business" style="shape=folder;fontStyle=1;spacingTop=10;tabWidth=40;tabHeight=14;tabPosition=left;html=1;fillColor=#fff2cc;strokeColor=#d6b656;" vertex="1" parent="1">
          <mxGeometry x="830" y="360" width="90" height="50" as="geometry" />
        </mxCell>
        <mxCell id="-zqVf1Ai86fP41GlEzWL-44" style="edgeStyle=orthogonalEdgeStyle;rounded=0;orthogonalLoop=1;jettySize=auto;html=1;dashed=1;dashPattern=1 4;endArrow=open;endFill=0;" edge="1" parent="1" source="-zqVf1Ai86fP41GlEzWL-45" target="-zqVf1Ai86fP41GlEzWL-46">
          <mxGeometry relative="1" as="geometry" />
        </mxCell>
        <mxCell id="-zqVf1Ai86fP41GlEzWL-45" value="repository" style="shape=folder;fontStyle=1;spacingTop=10;tabWidth=40;tabHeight=14;tabPosition=left;html=1;fillColor=#fff2cc;strokeColor=#d6b656;" vertex="1" parent="1">
          <mxGeometry x="830" y="440" width="90" height="50" as="geometry" />
        </mxCell>
        <mxCell id="-zqVf1Ai86fP41GlEzWL-84" style="edgeStyle=orthogonalEdgeStyle;rounded=0;orthogonalLoop=1;jettySize=auto;html=1;dashed=1;endArrow=open;endFill=0;" edge="1" parent="1" source="-zqVf1Ai86fP41GlEzWL-46" target="-zqVf1Ai86fP41GlEzWL-74">
          <mxGeometry relative="1" as="geometry" />
        </mxCell>
        <mxCell id="-zqVf1Ai86fP41GlEzWL-46" value="models" style="shape=folder;fontStyle=1;spacingTop=10;tabWidth=40;tabHeight=14;tabPosition=left;html=1;fillColor=#fff2cc;strokeColor=#d6b656;" vertex="1" parent="1">
          <mxGeometry x="830" y="510" width="90" height="50" as="geometry" />
        </mxCell>
        <mxCell id="-zqVf1Ai86fP41GlEzWL-48" value="config" style="shape=folder;fontStyle=1;spacingTop=10;tabWidth=40;tabHeight=14;tabPosition=left;html=1;fillColor=#fff2cc;strokeColor=#d6b656;" vertex="1" parent="1">
          <mxGeometry x="640" y="510" width="140" height="50" as="geometry" />
        </mxCell>
        <mxCell id="-zqVf1Ai86fP41GlEzWL-51" value="customer-info-service" style="verticalAlign=top;align=left;spacingTop=8;spacingLeft=2;spacingRight=12;shape=cube;size=10;direction=south;fontStyle=4;html=1;rounded=0;shadow=0;comic=0;labelBackgroundColor=none;strokeWidth=1;fontFamily=Verdana;fontSize=12;fillColor=#e1d5e7;strokeColor=#9673a6;" vertex="1" parent="1">
          <mxGeometry x="400" y="630" width="330" height="340" as="geometry" />
        </mxCell>
        <mxCell id="-zqVf1Ai86fP41GlEzWL-52" style="edgeStyle=orthogonalEdgeStyle;rounded=0;orthogonalLoop=1;jettySize=auto;html=1;dashed=1;dashPattern=1 4;endArrow=open;endFill=0;" edge="1" parent="1" source="-zqVf1Ai86fP41GlEzWL-54" target="-zqVf1Ai86fP41GlEzWL-58">
          <mxGeometry relative="1" as="geometry" />
        </mxCell>
        <mxCell id="-zqVf1Ai86fP41GlEzWL-53" style="edgeStyle=orthogonalEdgeStyle;rounded=0;orthogonalLoop=1;jettySize=auto;html=1;entryX=0;entryY=0;entryDx=0;entryDy=53;entryPerimeter=0;dashed=1;dashPattern=1 4;endArrow=open;endFill=0;" edge="1" parent="1" source="-zqVf1Ai86fP41GlEzWL-54" target="-zqVf1Ai86fP41GlEzWL-62">
          <mxGeometry relative="1" as="geometry" />
        </mxCell>
        <mxCell id="-zqVf1Ai86fP41GlEzWL-54" value="expose" style="shape=folder;fontStyle=1;spacingTop=10;tabWidth=40;tabHeight=14;tabPosition=left;html=1;fillColor=#fff2cc;strokeColor=#d6b656;" vertex="1" parent="1">
          <mxGeometry x="420" y="680" width="90" height="50" as="geometry" />
        </mxCell>
        <mxCell id="-zqVf1Ai86fP41GlEzWL-55" style="edgeStyle=orthogonalEdgeStyle;rounded=0;orthogonalLoop=1;jettySize=auto;html=1;dashed=1;dashPattern=1 4;endArrow=open;endFill=0;" edge="1" parent="1" source="-zqVf1Ai86fP41GlEzWL-58" target="-zqVf1Ai86fP41GlEzWL-60">
          <mxGeometry relative="1" as="geometry" />
        </mxCell>
        <mxCell id="-zqVf1Ai86fP41GlEzWL-56" style="edgeStyle=orthogonalEdgeStyle;rounded=0;orthogonalLoop=1;jettySize=auto;html=1;entryX=0;entryY=0;entryDx=0;entryDy=32;entryPerimeter=0;endArrow=open;endFill=0;dashed=1;dashPattern=1 4;" edge="1" parent="1" source="-zqVf1Ai86fP41GlEzWL-58" target="-zqVf1Ai86fP41GlEzWL-63">
          <mxGeometry relative="1" as="geometry" />
        </mxCell>
        <mxCell id="-zqVf1Ai86fP41GlEzWL-57" style="edgeStyle=orthogonalEdgeStyle;rounded=0;orthogonalLoop=1;jettySize=auto;html=1;entryX=0;entryY=0;entryDx=0;entryDy=92;entryPerimeter=0;endArrow=open;endFill=0;dashed=1;dashPattern=1 4;" edge="1" parent="1" source="-zqVf1Ai86fP41GlEzWL-58" target="-zqVf1Ai86fP41GlEzWL-62">
          <mxGeometry relative="1" as="geometry" />
        </mxCell>
        <mxCell id="-zqVf1Ai86fP41GlEzWL-58" value="business" style="shape=folder;fontStyle=1;spacingTop=10;tabWidth=40;tabHeight=14;tabPosition=left;html=1;fillColor=#fff2cc;strokeColor=#d6b656;" vertex="1" parent="1">
          <mxGeometry x="420" y="750" width="90" height="50" as="geometry" />
        </mxCell>
        <mxCell id="-zqVf1Ai86fP41GlEzWL-59" style="edgeStyle=orthogonalEdgeStyle;rounded=0;orthogonalLoop=1;jettySize=auto;html=1;dashed=1;dashPattern=1 4;endArrow=open;endFill=0;" edge="1" parent="1" source="-zqVf1Ai86fP41GlEzWL-60" target="-zqVf1Ai86fP41GlEzWL-61">
          <mxGeometry relative="1" as="geometry" />
        </mxCell>
        <mxCell id="-zqVf1Ai86fP41GlEzWL-60" value="repository" style="shape=folder;fontStyle=1;spacingTop=10;tabWidth=40;tabHeight=14;tabPosition=left;html=1;fillColor=#fff2cc;strokeColor=#d6b656;" vertex="1" parent="1">
          <mxGeometry x="420" y="830" width="90" height="50" as="geometry" />
        </mxCell>
        <mxCell id="-zqVf1Ai86fP41GlEzWL-70" style="edgeStyle=orthogonalEdgeStyle;rounded=0;orthogonalLoop=1;jettySize=auto;html=1;exitX=0.5;exitY=1;exitDx=0;exitDy=0;exitPerimeter=0;dashed=1;endArrow=open;endFill=0;" edge="1" parent="1" source="-zqVf1Ai86fP41GlEzWL-61" target="-zqVf1Ai86fP41GlEzWL-8">
          <mxGeometry relative="1" as="geometry">
            <Array as="points">
              <mxPoint x="465" y="1000" />
              <mxPoint x="565" y="1000" />
            </Array>
          </mxGeometry>
        </mxCell>
        <mxCell id="-zqVf1Ai86fP41GlEzWL-61" value="models" style="shape=folder;fontStyle=1;spacingTop=10;tabWidth=40;tabHeight=14;tabPosition=left;html=1;fillColor=#fff2cc;strokeColor=#d6b656;" vertex="1" parent="1">
          <mxGeometry x="420" y="900" width="90" height="50" as="geometry" />
        </mxCell>
        <mxCell id="-zqVf1Ai86fP41GlEzWL-63" value="config" style="shape=folder;fontStyle=1;spacingTop=10;tabWidth=40;tabHeight=14;tabPosition=left;html=1;fillColor=#fff2cc;strokeColor=#d6b656;" vertex="1" parent="1">
          <mxGeometry x="560" y="900" width="140" height="50" as="geometry" />
        </mxCell>
        <mxCell id="-zqVf1Ai86fP41GlEzWL-72" value="Accounts" style="swimlane;childLayout=stackLayout;horizontal=1;startSize=30;horizontalStack=0;rounded=1;fontSize=14;fontStyle=0;strokeWidth=2;resizeParent=0;resizeLast=1;shadow=0;dashed=0;align=center;sketch=0;glass=0;fillColor=#E6E6E6;gradientColor=none;swimlaneFillColor=default;" vertex="1" parent="1">
          <mxGeometry x="130" y="1100" width="270" height="940" as="geometry" />
        </mxCell>
        <mxCell id="-zqVf1Ai86fP41GlEzWL-73" value="{&#xa;    &quot;id&quot;: &quot;String&quot;,&#xa;    &quot;status&quot;: &quot;String&quot;,&#xa;    &quot;customer&quot;: {&#xa;        &quot;id&quot;: &quot;String&quot;,&#xa;        &quot;type&quot;: &quot;String&quot;,&#xa;        &quot;status&quot;: &quot;String&quot;&#xa;    },&#xa;    &quot;accountType&quot;: {&#xa;        &quot;id&quot;: &quot;String&quot;,&#xa;        &quot;description&quot;: &quot;String&quot;,&#xa;        &quot;commission&quot;: Double,&#xa;        &quot;maximumNumberOfOperations&quot;: Integer,&#xa;        &quot;allowedDayForOperations&quot;: Integer&#xa;    },&#xa;    &quot;accountNumber&quot;: &quot;String&quot;,&#xa;    &quot;issueDate&quot;: &quot;Date&quot;,&#xa;    &quot;dueDate&quot;: &quot;Date&quot;,&#xa;    &quot;currentBalance&quot;: Double,&#xa;    &quot;doneOperationsInMonth&quot;: Integer,&#xa;    &quot;operations&quot;: [&#xa;        {&#xa;            &quot;operationNumber&quot;: &quot;String&quot;,&#xa;	    &quot;time&quot;: &quot;Date&quot;,&#xa;            &quot;type&quot;: &quot;String&quot;,&#xa;            &quot;amount&quot;: Double&#xa;        }&#xa;    ],&#xa;    &quot;holders&quot;: [&#xa;        {&#xa;            &quot;name&quot;: &quot;String&quot;,&#xa;            &quot;lastname&quot;: &quot;String&quot;,&#xa;            &quot;identityNumber&quot;: &quot;String&quot;,&#xa;            &quot;address&quot;: {&#xa;                &quot;number&quot;: Integer,&#xa;                &quot;street&quot;: &quot;String&quot;,&#xa;                &quot;city&quot;: &quot;String&quot;,&#xa;                &quot;country&quot;: &quot;String&quot;&#xa;            },&#xa;            &quot;email&quot;: &quot;String&quot;,&#xa;            &quot;phoneNumber&quot;: &quot;String&quot;,&#xa;            &quot;mobileNumber&quot;: &quot;String&quot;,&#xa;            &quot;birthdate&quot;: &quot;Date&quot;&#xa;        }&#xa;    ],&#xa;    &quot;signers&quot;: [&#xa;        {&#xa;            &quot;name&quot;: &quot;String&quot;,&#xa;            &quot;lastname&quot;: &quot;String&quot;,&#xa;            &quot;identityNumber&quot;: &quot;String&quot;,&#xa;            &quot;address&quot;: {&#xa;                &quot;number&quot;: Integer,&#xa;                &quot;street&quot;: &quot;String&quot;,&#xa;                &quot;city&quot;: &quot;String&quot;,&#xa;                &quot;country&quot;: &quot;String&quot;&#xa;            },&#xa;            &quot;email&quot;: &quot;String&quot;,&#xa;            &quot;phoneNumber&quot;: &quot;String&quot;,&#xa;            &quot;mobileNumber&quot;: &quot;String&quot;,&#xa;            &quot;birthdate&quot;: &quot;Date&quot;&#xa;        }&#xa;    ]&#xa;}" style="align=left;strokeColor=none;fillColor=none;spacingLeft=4;fontSize=12;verticalAlign=top;resizable=0;rotatable=0;part=1;" vertex="1" parent="-zqVf1Ai86fP41GlEzWL-72">
          <mxGeometry y="30" width="270" height="910" as="geometry" />
        </mxCell>
        <mxCell id="-zqVf1Ai86fP41GlEzWL-74" value="Credit" style="swimlane;childLayout=stackLayout;horizontal=1;startSize=30;horizontalStack=0;rounded=1;fontSize=14;fontStyle=0;strokeWidth=2;resizeParent=0;resizeLast=1;shadow=0;dashed=0;align=center;fillColor=#E6E6E6;sketch=0;swimlaneFillColor=default;" vertex="1" parent="1">
          <mxGeometry x="720" y="1100" width="250" height="500" as="geometry" />
        </mxCell>
        <mxCell id="-zqVf1Ai86fP41GlEzWL-75" value="{&#xa;    &quot;id&quot;: &quot;String&quot;,&#xa;    &quot;status&quot;: &quot;String&quot;,&#xa;    &quot;customer&quot;: {&#xa;        &quot;id&quot;: &quot;String&quot;,&#xa;        &quot;type&quot;: &quot;String&quot;,&#xa;        &quot;status&quot;: &quot;String&quot;&#xa;    },&#xa;    &quot;fullGrantedAmount&quot;: Double,&#xa;    &quot;availableAmount&quot;: Double,&#xa;    &quot;creditCardNumber&quot;: &quot;String&quot;,&#xa;    &quot;issueDate&quot;: &quot;Date&quot;,&#xa;    &quot;dueDate&quot;: &quot;Date&quot;,&#xa;    &quot;operations&quot;: [&#xa;        {&#xa;            &quot;operationNumber&quot;: &quot;String&quot;,&#xa;	    &quot;time&quot;: &quot;Date&quot;,&#xa;            &quot;type&quot;: &quot;String&quot;,&#xa;            &quot;amount&quot;: Double,&#xa;	    &quot;billingOrder&quot;: {&#xa;		&quot;id&quot;: &quot;String&quot;,&#xa;                &quot;calculatedAmount&quot;: Double,&#xa;                &quot;cycle&quot;: &quot;String&quot;,&#xa;                &quot;status&quot;: &quot;String&quot;&#xa;            }&#xa;        }&#xa;    ],&#xa;    &quot;billingDetails&quot;: {&#xa;        &quot;interestPercentage&quot;: Double,&#xa;        &quot;closingDay&quot;: Integer&#xa;    }&#xa;}" style="align=left;strokeColor=none;fillColor=none;spacingLeft=4;fontSize=12;verticalAlign=top;resizable=0;rotatable=0;part=1;" vertex="1" parent="-zqVf1Ai86fP41GlEzWL-74">
          <mxGeometry y="30" width="250" height="470" as="geometry" />
        </mxCell>
        <mxCell id="-zqVf1Ai86fP41GlEzWL-79" value="" style="group" vertex="1" connectable="0" parent="1">
          <mxGeometry x="640" y="290" width="140" height="200" as="geometry" />
        </mxCell>
        <mxCell id="-zqVf1Ai86fP41GlEzWL-47" value="utils" style="shape=folder;fontStyle=1;spacingTop=10;tabWidth=40;tabHeight=14;tabPosition=left;html=1;align=center;verticalAlign=top;fillColor=#fff2cc;strokeColor=#d6b656;" vertex="1" parent="-zqVf1Ai86fP41GlEzWL-79">
          <mxGeometry width="140" height="200" as="geometry" />
        </mxCell>
        <mxCell id="-zqVf1Ai86fP41GlEzWL-49" value="errorhandling" style="shape=folder;fontStyle=1;spacingTop=10;tabWidth=40;tabHeight=14;tabPosition=left;html=1;fillColor=#fff2cc;strokeColor=#d6b656;" vertex="1" parent="-zqVf1Ai86fP41GlEzWL-79">
          <mxGeometry x="10" y="50" width="120" height="50" as="geometry" />
        </mxCell>
        <mxCell id="-zqVf1Ai86fP41GlEzWL-50" value="utilsimpl" style="shape=folder;fontStyle=1;spacingTop=10;tabWidth=40;tabHeight=14;tabPosition=left;html=1;fillColor=#fff2cc;strokeColor=#d6b656;" vertex="1" parent="-zqVf1Ai86fP41GlEzWL-79">
          <mxGeometry x="10" y="130" width="120" height="50" as="geometry" />
        </mxCell>
        <mxCell id="-zqVf1Ai86fP41GlEzWL-80" value="" style="group" vertex="1" connectable="0" parent="1">
          <mxGeometry x="330" y="290" width="140" height="200" as="geometry" />
        </mxCell>
        <mxCell id="-zqVf1Ai86fP41GlEzWL-21" value="utils" style="shape=folder;fontStyle=1;spacingTop=10;tabWidth=40;tabHeight=14;tabPosition=left;html=1;align=center;verticalAlign=top;fillColor=#fff2cc;strokeColor=#d6b656;" vertex="1" parent="-zqVf1Ai86fP41GlEzWL-80">
          <mxGeometry width="140" height="200" as="geometry" />
        </mxCell>
        <mxCell id="-zqVf1Ai86fP41GlEzWL-23" value="errorhandling" style="shape=folder;fontStyle=1;spacingTop=10;tabWidth=40;tabHeight=14;tabPosition=left;html=1;fillColor=#fff2cc;strokeColor=#d6b656;" vertex="1" parent="-zqVf1Ai86fP41GlEzWL-80">
          <mxGeometry x="10" y="50" width="120" height="50" as="geometry" />
        </mxCell>
        <mxCell id="-zqVf1Ai86fP41GlEzWL-24" value="utilsimpl" style="shape=folder;fontStyle=1;spacingTop=10;tabWidth=40;tabHeight=14;tabPosition=left;html=1;fillColor=#fff2cc;strokeColor=#d6b656;" vertex="1" parent="-zqVf1Ai86fP41GlEzWL-80">
          <mxGeometry x="10" y="130" width="120" height="50" as="geometry" />
        </mxCell>
        <mxCell id="-zqVf1Ai86fP41GlEzWL-81" value="" style="group" vertex="1" connectable="0" parent="1">
          <mxGeometry x="560" y="680" width="140" height="200" as="geometry" />
        </mxCell>
        <mxCell id="-zqVf1Ai86fP41GlEzWL-62" value="utils" style="shape=folder;fontStyle=1;spacingTop=10;tabWidth=40;tabHeight=14;tabPosition=left;html=1;align=center;verticalAlign=top;fillColor=#fff2cc;strokeColor=#d6b656;" vertex="1" parent="-zqVf1Ai86fP41GlEzWL-81">
          <mxGeometry width="140" height="200" as="geometry" />
        </mxCell>
        <mxCell id="-zqVf1Ai86fP41GlEzWL-64" value="errorhandling" style="shape=folder;fontStyle=1;spacingTop=10;tabWidth=40;tabHeight=14;tabPosition=left;html=1;fillColor=#fff2cc;strokeColor=#d6b656;" vertex="1" parent="-zqVf1Ai86fP41GlEzWL-81">
          <mxGeometry x="10" y="50" width="120" height="50" as="geometry" />
        </mxCell>
        <mxCell id="-zqVf1Ai86fP41GlEzWL-65" value="utilsimpl" style="shape=folder;fontStyle=1;spacingTop=10;tabWidth=40;tabHeight=14;tabPosition=left;html=1;fillColor=#fff2cc;strokeColor=#d6b656;" vertex="1" parent="-zqVf1Ai86fP41GlEzWL-81">
          <mxGeometry x="10" y="130" width="120" height="50" as="geometry" />
        </mxCell>
        <mxCell id="-zqVf1Ai86fP41GlEzWL-86" value="" style="shape=image;verticalLabelPosition=bottom;labelBackgroundColor=default;verticalAlign=top;aspect=fixed;imageAspect=0;image=data:image/png,iVBORw0KGgoAAAANSUhEUgAAAOEAAADhCAMAAAAJbSJIAAAAZlBMVEX///8mmvIAk/HU6fwAlPEVlvIAkfEfmPL4/P/m8v0tnfKLw/fS5/zY6/zi8P3K4/uSxvdarfRNqPSjzvjw+P6Dv/fA3vo3oPO02Pp6u/aby/i72/pyuPat1PlFpfPr9f5ps/VhsfU8PKwMAAAFG0lEQVR4nO3d2ZaqMBAFUBMJhXgFAeep9f9/8gbUFhVbhoy1ar/5xlkhc4KjESGEEEIIIYQQQgghhBBCCCGEEEIIIYQQ0koULZLxeDxLkkVk+1lUS/a7Q75mgt9BfLosi/TH9oOpEKXznHMhBDBgD/IXiIDzbJ56XZ6zXS4CUU/2SsaErJjYftB+ZtOY/5nukTJc7/wLuTm1i3cjgnxj+5G7+JlC0D7drSQDNl/YfvCWJodOxffIKIKlD63rYsv7xLuSGZ1vWqcD8lUZ4Wg7wp9WsRiUj5X18TS2HeOjn2xgAd4yhgdHX9VNr/aliYj/2Q7TIDpzRflK4dx2njezWFUBXoncsc5xo7IAKwBONThz5QFlRO7QOO6gIaDEXamMUT64E/wUcWk729VJbRtTF2xthytpDCgjHmzHG41ynQFlROsvqrY6eMendgOedQeUEQubAaedp/J9Iq7sBdzr6QdfBYmtgImJEizFtmZTsaGATJztBNzqb2XuuJWljTQ0FlBGtLBiHDG9Xf0zyM0nPJgMKNtT/b1ilCST2rQ7NdNR1CLqnPPPjtucVft+Icu2m6pKrA0HZHDWFS+ZV1tIt3cSym2/dbE4muoKH7ie9bdV1rQHIUy/oiU4acg3y5Us8SqiYXw6ZI9FB9WFmAzfg1BMcSGuzLclXyktxMLkmKwtlc1pYaO1/ErhHGPjYglKXNXAZuxkCUpipyZgZDvIZ2s1CS9udYN1fKYi4MrVd1QSSjZrjE5tu1LxmhYOdvUPXMHKouLtasXE8Lm+y7VQgsvghJnTRSin4EMDLtwuQgX9xd61KdMrMXRxeOv2Sypf06FbpifbCb4aujbsdGdY4UPiRenO9WooE/Y+R7w4ZjxwPyALek7099nfFyPcIfocBouKOPAjHus3C96BJ8VXgc7HT9LYp3yyDDsek1J7tNeEjmPv1OnpbqNu28G70LuA3Va+L+6PYN5B3HqaH5086N8bAGfbtFXAtYdv6BVAwKZfB2+R1pOv2oHg5y9nbDSffDUA+J8X3Q5+1sFngn0eo7q5e9YZ8MuHYpzhCMjKa+/NfYft51KpcXd/iaES/mo4munsBmhP4duM0e+esMHrcX7Hdyb6CJ/rovFjhQY8HedHWIRSXEvo/3CtSW1tI0FZhLK1+Z1QTVH1hTW/76l/CzMt3fe/8YxI34jrINyDrZe+bovhOFvSCrAyYIS3CGW3v8ddDWUhZqPy+yO2H0OncDEazfFWQ3bdWjR8H8uw8uZQbvshtCpbU4wzpxo+QbUE1UCs0CfcoU+4NHfB3A64YG9p4IR54F2JR2fkCdloiT5hgXrkXb6lLt6bVEi2NBPM88PrDBHtUltF9vgu30tToFyMcvtW01By5I12Uf+q+owN5nEbxMiXhG93vX8QV8TbIXfEQ9Pwepn9H9q25vd8NNoZVHA/r4C1EOGxl490XFO7Ioyz13+6PzvH2CcGT8fb/D3i/dnztwiMfZfTnNcb0Oq/Em+ZeLvvtcRVitDwvYwLptYGRNPNhAxRxLD5Dg2eiB//RcHLi10Nws/fO1miaFH//KT5EUHEL3/0MWaeV0ZgX791oun/Rcz4fCuo7t/an7v4LwS0/PrAJvayUYUuf0N3XHPP6iMIfuj2FfP0AD589uMGOJt3/8RJtD8AF+B4nQSAgEO7m85Nks00WwN3WJxvi8HfToyiSfnfyy5KHPszNkIIIYQQQgghhBBCCCGEEEIIIYQQQgghw/wHcQB9D0kzQgEAAAAASUVORK5CYII=;" vertex="1" parent="1">
          <mxGeometry x="502.5" y="15" width="125" height="125" as="geometry" />
        </mxCell>
        <mxCell id="-zqVf1Ai86fP41GlEzWL-90" value="localhost:8082" style="edgeStyle=orthogonalEdgeStyle;rounded=0;orthogonalLoop=1;jettySize=auto;html=1;entryX=0;entryY=0.5;entryDx=0;entryDy=0;dashed=1;endArrow=open;endFill=0;" edge="1" parent="1" source="-zqVf1Ai86fP41GlEzWL-17" target="-zqVf1Ai86fP41GlEzWL-86">
          <mxGeometry relative="1" as="geometry">
            <Array as="points">
              <mxPoint x="235" y="78" />
            </Array>
          </mxGeometry>
        </mxCell>
        <mxCell id="-zqVf1Ai86fP41GlEzWL-88" style="edgeStyle=orthogonalEdgeStyle;rounded=0;orthogonalLoop=1;jettySize=auto;html=1;entryX=1;entryY=0.5;entryDx=0;entryDy=0;dashed=1;endArrow=open;endFill=0;exitX=0;exitY=0;exitDx=40;exitDy=14;exitPerimeter=0;" edge="1" parent="1" source="-zqVf1Ai86fP41GlEzWL-39" target="-zqVf1Ai86fP41GlEzWL-86">
          <mxGeometry relative="1" as="geometry">
            <Array as="points">
              <mxPoint x="870" y="78" />
            </Array>
          </mxGeometry>
        </mxCell>
        <mxCell id="-zqVf1Ai86fP41GlEzWL-92" value="lobalhost:8083" style="edgeLabel;html=1;align=center;verticalAlign=middle;resizable=0;points=[];" vertex="1" connectable="0" parent="-zqVf1Ai86fP41GlEzWL-88">
          <mxGeometry x="-0.3774" relative="1" as="geometry">
            <mxPoint x="-20" y="-81" as="offset" />
          </mxGeometry>
        </mxCell>
        <mxCell id="-zqVf1Ai86fP41GlEzWL-87" style="edgeStyle=orthogonalEdgeStyle;rounded=0;orthogonalLoop=1;jettySize=auto;html=1;dashed=1;endArrow=open;endFill=0;" edge="1" parent="1" source="-zqVf1Ai86fP41GlEzWL-54" target="-zqVf1Ai86fP41GlEzWL-86">
          <mxGeometry relative="1" as="geometry">
            <Array as="points">
              <mxPoint x="465" y="610" />
              <mxPoint x="565" y="610" />
            </Array>
          </mxGeometry>
        </mxCell>
        <mxCell id="-zqVf1Ai86fP41GlEzWL-91" value="localhost:8081" style="edgeLabel;html=1;align=center;verticalAlign=middle;resizable=0;points=[];" vertex="1" connectable="0" parent="-zqVf1Ai86fP41GlEzWL-87">
          <mxGeometry x="0.7571" y="3" relative="1" as="geometry">
            <mxPoint as="offset" />
          </mxGeometry>
        </mxCell>
      </root>
    </mxGraphModel>
  </diagram>
</mxfile>
